<svg xmlns="http://www.w3.org/2000/svg" width="1200" height="630"><defs><linearGradient id="g" x1="0" y1="0" x2="1" y2="1"><stop stop-color="#00e5ff"/><stop offset=".52" stop-color="#7c4dff"/><stop offset="1" stop-color="#ffb703"/></linearGradient></defs><rect width="1200" height="630" fill="#fff"/><circle cx="1030" cy="80" r="260" fill="#eefcff"/><circle cx="1100" cy="520" r="300" fill="#f4efff"/><g transform="translate(90 105) scale(.65)"><rect width="512" height="512" rx="128" fill="#fff"/><g fill="none" stroke="url(#g)" stroke-width="34" stroke-linecap="round"><path d="M115 256c0-82 65-147 147-147s147 65 147 147-65 147-147 147-147-65-147-147Z"/><path d="M150 170c42 43 75 84 106 86 35 2 65-45 106-86"/><path d="M150 342c42-43 75-84 106-86 35-2 65 45 106 86"/></g><circle cx="256" cy="256" r="25" fill="#111827"/></g><text x="420" y="245" font-family="Arial,Helvetica,sans-serif" font-size="78" font-weight="800" fill="#111827">AELIA AI</text><text x="425" y="315" font-family="Arial,Helvetica,sans-serif" font-size="30" fill="#475569">Light. Intelligence. Yours.</text><rect x="425" y="350" width="410" height="5" rx="3" fill="url(#g)"/></svg>